# xmcd
#
# Track frame offsets: 
#        150
#        13815
#        31601
#        49699
#        63686
#        77205
#        88719
#        110761
#        122189
#        136846
#        149655
#
# Disc length: 2061 seconds
#
# Revision: 0
# Processed by: cddbd v1.5.2PL0 Copyright (c) Steve Scherf et al.
# Submitted via: ExactAudioCopyFreeDBPlugin 1.0
#
DISCID=9c080b0b
DTITLE=Katie Glassman and Snapshot - Dream a Little Dream
DYEAR=2013
DGENRE=Old Time
TTITLE0=Liza Jane
TTITLE1=Good Times Gone By
TTITLE2=Little Dream of Mine
TTITLE3=Rutland's Reel
TTITLE4=I Don't Care If the Sun Don't Shine
TTITLE5=Not Stickin' Around
TTITLE6=Sweet Lies
TTITLE7=Tryin' To Get To You
TTITLE8=Pampas Envy
TTITLE9=My Window Faces South
TTITLE10=Jubilee Stomp
EXTD=
EXTT0=
EXTT1=
EXTT2=
EXTT3=
EXTT4=
EXTT5=
EXTT6=
EXTT7=
EXTT8=
EXTT9=
EXTT10=
PLAYORDER=
